# xmcd
#
# Track frame offsets:
# 150
# 18563
# 38034
#
# Disc length: 799 seconds
#
#
# Revision: 1
# Processed by: cddbd v1.5.1PL0 Copyright (c) Steve Scherf et al.
# Submitted via: FreeRIP 2.80 
#
DISCID=1b031d03
DTITLE=Asuka - Me and My Girlfriend
DYEAR=2004
DGENRE=Vocal
TTITLE0=Me and My Girlfriend
TTITLE1=Never Stop The Flow
TTITLE2=?????? -Candy Talk Mix-
EXTD=YEAR: 2004
EXTT0=
EXTT1=
EXTT2=
PLAYORDER=
